<?xml version="1.0" encoding="utf-8"?>
<!-- Generator: Adobe Illustrator 22.1.0, SVG Export Plug-In . SVG Version: 6.00 Build 0)  -->
<svg version="1.1"
	 id="svg2" inkscape:version="0.48.5 r10040" sodipodi:docname="logo3bis.svg" xmlns:cc="http://creativecommons.org/ns#" xmlns:dc="http://purl.org/dc/elements/1.1/" xmlns:inkscape="http://www.inkscape.org/namespaces/inkscape" xmlns:rdf="http://www.w3.org/1999/02/22-rdf-syntax-ns#" xmlns:sodipodi="http://sodipodi.sourceforge.net/DTD/sodipodi-0.dtd" xmlns:svg="http://www.w3.org/2000/svg"
	 xmlns="http://www.w3.org/2000/svg" xmlns:xlink="http://www.w3.org/1999/xlink" x="0px" y="0px" viewBox="0 0 519.6 337.1"
	 style="enable-background:new 0 0 519.6 337.1;" xml:space="preserve">
<style type="text/css">
	.st0{fill:#FFB600;}
</style>
<sodipodi:namedview  bordercolor="#666666" borderopacity="1.0" id="base" inkscape:current-layer="layer1" inkscape:cx="402.98642" inkscape:cy="212.3402" inkscape:document-units="px" inkscape:pageopacity="0.0" inkscape:pageshadow="2" inkscape:window-height="716" inkscape:window-maximized="1" inkscape:window-width="1366" inkscape:window-x="-8" inkscape:window-y="-8" inkscape:zoom="0.9899495" pagecolor="#ffffff" showgrid="false">
	</sodipodi:namedview>
<g id="layer2" inkscape:groupmode="layer" inkscape:label="Calque2">
	<path id="path2985" class="st0" d="M251.9,3.5c-86.8,0-157.1,69.7-157.1,155.7c0,3.5,0.1,7,0.4,10.4h39.7c-0.4-3.9-0.6-7.9-0.6-12
		c0-63.3,51.8-114.7,115.7-114.7s115.7,51.3,115.7,114.7S313.9,272.3,250,272.3c-4.3,0-8.5-0.2-12.6-0.7h-94.1
		c28.2,26.8,66.5,43.3,108.7,43.3c86.8,0,157.2-69.7,157.2-155.7S338.7,3.5,251.9,3.5z"/>
</g>
<g id="layer1" transform="translate(-125,-258.57143)" inkscape:groupmode="layer" inkscape:label="Calque 1">
	<rect id="rect4153" x="156.1" y="530.5" class="st0" width="443.5" height="42.9"/>
	<path id="path4180" inkscape:connector-curvature="0" sodipodi:nodetypes="cccc" class="st0" d="M572.1,507.9l67.9,43.6l-67,40.7
		L572.1,507.9z"/>
	<path id="path4180-4" inkscape:connector-curvature="0" sodipodi:nodetypes="cccc" class="st0" d="M282.5,407.3L240,475.9
		l-41.7-66.3L282.5,407.3z"/>
</g>
</svg>
