<?xml version="1.0" encoding="utf-8"?>
<!-- Generator: Adobe Illustrator 22.1.0, SVG Export Plug-In . SVG Version: 6.00 Build 0)  -->
<svg version="1.1" id="Calque_1" xmlns="http://www.w3.org/2000/svg" xmlns:xlink="http://www.w3.org/1999/xlink" x="0px" y="0px"
	 viewBox="0 0 512 512" style="enable-background:new 0 0 512 512;" xml:space="preserve">
<style type="text/css">
	.st0{fill:#FCD02C;}
</style>
<g id="Outline">
	<path class="st0" d="M488,416h-56v-32c0-4.4-3.6-8-8-8H264v-48h-16v48H88c-4.4,0-8,3.6-8,8v32H24c-4.4,0-8,3.6-8,8v64
		c0,4.4,3.6,8,8,8h128c4.4,0,8-3.6,8-8v-64c0-4.4-3.6-8-8-8H96v-24h152v24h-56c-4.4,0-8,3.6-8,8v64c0,4.4,3.6,8,8,8h128
		c4.4,0,8-3.6,8-8v-64c0-4.4-3.6-8-8-8h-56v-24h152v24h-56c-4.4,0-8,3.6-8,8v64c0,4.4,3.6,8,8,8h128c4.4,0,8-3.6,8-8v-64
		C496,419.6,492.4,416,488,416z M144,480H32v-48h112V480z M312,480H200v-48h112V480z M480,480H368v-48h112V480z"/>
	<path class="st0" d="M48,448h16v16H48V448z"/>
	<path class="st0" d="M80,448h48v16H80V448z"/>
	<path class="st0" d="M216,448h16v16h-16V448z"/>
	<path class="st0" d="M248,448h48v16h-48V448z"/>
	<path class="st0" d="M384,448h16v16h-16V448z"/>
	<path class="st0" d="M416,448h48v16h-48V448z"/>
	<path class="st0" d="M360,320V48c0-17.7-14.3-32-32-32H184c-17.7,0-32,14.3-32,32v272c0,17.7,14.3,32,32,32h48v-16h-48
		c-8.8,0-16-7.2-16-16V48c0-8.8,7.2-16,16-16h144c8.8,0,16,7.2,16,16v272c0,8.8-7.2,16-16,16h-48v16h48C345.7,352,360,337.7,360,320
		z"/>
	<path class="st0" d="M232,48h16v16h-16V48z"/>
	<path class="st0" d="M264,48h16v16h-16V48z"/>
	<path class="st0" d="M200,136v16h16.8c1,5,3,9.8,5.8,14l-11.9,11.9l11.3,11.3l11.9-11.9c4.3,2.8,9,4.8,14,5.8V200h16v-16.8
		c5-1,9.8-3,14-5.8l11.9,11.9l11.3-11.3L289.4,166c2.8-4.3,4.8-9,5.8-14H312v-16h-16.8c-1-5-3-9.8-5.8-14l11.9-11.9l-11.3-11.3
		L278,110.6c-4.3-2.8-9-4.8-14-5.8V88h-16v16.8c-5,1-9.8,3-14,5.8l-11.9-11.9l-11.3,11.3l11.9,11.9c-2.8,4.3-4.8,9-5.8,14L200,136z
		 M256,120c13.3,0,24,10.7,24,24s-10.7,24-24,24c-13.3,0-24-10.7-24-24C232,130.8,242.8,120,256,120z"/>
	<path class="st0" d="M192,224h16v16h-16V224z"/>
	<path class="st0" d="M224,224h96v16h-96V224z"/>
	<path class="st0" d="M192,256h128v16H192V256z"/>
	<path class="st0" d="M248,296h16v16h-16V296z"/>
</g>
</svg>
