<?xml version="1.0" encoding="utf-8"?>
<!-- Generator: Adobe Illustrator 22.1.0, SVG Export Plug-In . SVG Version: 6.00 Build 0)  -->
<svg version="1.1" id="Calque_1" xmlns="http://www.w3.org/2000/svg" xmlns:xlink="http://www.w3.org/1999/xlink" x="0px" y="0px"
	 viewBox="0 0 24 24" style="enable-background:new 0 0 24 24;" xml:space="preserve">
<style type="text/css">
	.st0{fill:#FCD02C;}
</style>
<path class="st0" d="M0.8,12.2L0.8,12.2c-0.3-0.1-0.4-0.3-0.5-0.5c-0.1-0.3-0.2-0.5-0.2-0.8l0-0.1c0-0.2,0-0.4,0.1-0.6l0.1-0.1
	c0-0.1,0.1-0.1,0.2-0.2c0.1-0.1,0.1-0.2,0-0.2L0.4,9.5C0.4,9.3,0.3,9.1,0.3,8.9l0-0.1c0-0.2,0.1-0.4,0.2-0.6l0.1-0.1
	C0.7,8,0.8,7.9,0.9,7.9c0.1,0,0.2-0.1,0.2-0.2l0-0.3c0-0.3,0.1-0.5,0.3-0.7l0.2-0.2c0-0.1,0.1-0.1,0.1-0.2c0-0.1,0.1-0.1,0-0.2
	c0-0.1,0-0.1,0-0.1c0.2,0.1,0.3,0,0.3,0l0.1-0.2l0.4-0.4C2.9,5.2,2.9,5,2.8,4.9L2.7,4.6c0-0.1,0-0.1,0-0.2C2.9,4.4,3,4.5,3,4.6
	l0,0.1c0.1,0.1,0.2,0.2,0.3,0.1c0.2-0.1,0.4-0.1,0.6-0.1h0.3c0.2,0,0.4-0.2,0.4-0.4C4.7,4,4.8,3.8,5,3.6c0.2-0.2,0.3-0.3,0.5-0.4
	C5.8,3.1,5.9,2.9,6,2.6C6,2.3,6.2,2.1,6.4,1.9l0.8-0.4l0.2-0.1c0.1-0.1,0.2-0.2,0.3-0.3L8,0.8c0.1-0.1,0.2-0.2,0.3-0.2
	c0.1,0,0.2-0.1,0.4,0l0.4,0c0.2,0,0.4,0.1,0.5,0.1l0.1,0.1c0.1,0,0.2,0,0.2-0.1L10,0.7l0.4-0.4c0.1-0.1,0.2-0.1,0.4-0.1
	s0.3,0.1,0.4,0.1c0.2,0.1,0.3,0.1,0.5,0.1h0.1c0.2,0,0.4,0,0.7,0.1l0.1,0c0.1,0,0.3,0,0.4-0.1c0-0.1,0.1-0.1,0.1,0c0,0,0,0,0.1,0.1
	c0,0.2,0.1,0.3,0.3,0.4l0.2,0.1C13.8,0.9,13.9,1,14,1.2c0.1,0.1,0.2,0.3,0.4,0.4l0.1,0.1c0.1,0.1,0.2,0.1,0.4,0.1h0.6
	c0.2,0,0.5,0,0.7,0.1c0.2,0.1,0.5,0.1,0.7,0c0.2-0.1,0.5-0.1,0.7-0.1L17.9,2c0.2,0,0.4,0.1,0.5,0.3l0,0c0.1,0.1,0.2,0.2,0.3,0.4
	c0.1,0.1,0.2,0.2,0.3,0.2h0.6c0.1,0,0.3,0,0.4,0.1c0.1,0.1,0.2,0.2,0.3,0.3l0.1,0.1c0.1,0.1,0.2,0.3,0.2,0.5c0,0.2,0.1,0.3,0.3,0.3
	l0.2,0c0.1,0,0.3,0.1,0.3,0.2l0.1,0.2L22,5.3c0,0.1,0,0.2,0,0.3c0,0.1,0,0.2,0.1,0.2l0.1,0.1c0.1,0.1,0.2,0.2,0.2,0.4l-0.1,0.5
	l0,0.2c0,0.1,0,0.2,0.1,0.3c0.1,0.1,0.2,0.2,0.2,0.4v0.2c0,0.1,0,0.2-0.1,0.3c-0.1,0.1-0.1,0.2-0.1,0.3l0,0.2c0,0.2,0.1,0.3,0.2,0.4
	c0.1,0.1,0.2,0.3,0.2,0.4c0,0.2,0,0.4,0,0.6v0.2c0,0.1,0,0.2,0,0.2c0,0.1,0.1,0.1,0.1,0.2l0.2,0.1c0.2,0.1,0.3,0.3,0.4,0.5
	c0.1,0.2,0.1,0.4,0.1,0.7v0.1c0,0.2,0,0.4-0.1,0.5c-0.1,0.2,0,0.3,0,0.5c0.1,0.1,0.1,0.3,0.1,0.5c0,0.2,0,0.4,0,0.6l0,0.1
	c0,0.1-0.1,0.2-0.2,0.3c-0.1,0.1-0.2,0.2-0.3,0.2c-0.1,0.1-0.1,0.2-0.1,0.2l0,0.1c0,0.2,0,0.4,0,0.6v0.1c0,0.2-0.1,0.3-0.2,0.4
	c-0.1,0.1-0.2,0.2-0.3,0.3l-0.1,0.1c-0.1,0-0.1,0.1-0.1,0.2c0,0.1,0,0.2-0.1,0.3l-0.1,0.2c-0.1,0.1-0.2,0.2-0.4,0.3
	c-0.1,0.1-0.3,0.2-0.4,0.3c-0.1,0.1-0.2,0.3-0.2,0.4c0,0.2-0.2,0.3-0.3,0.3h-0.5c-0.1,0-0.3,0.1-0.3,0.2c-0.1,0.2-0.1,0.3-0.2,0.4
	c-0.1,0.1-0.2,0.2-0.2,0.4c0,0.1-0.1,0.2-0.2,0.2c-0.1-0.1-0.3,0-0.3,0.1c-0.1,0.2-0.2,0.4-0.4,0.5l-0.1,0.1
	c-0.1,0.1-0.3,0.2-0.5,0.2c-0.2,0-0.3,0.1-0.3,0.2c0,0.1,0,0.2-0.1,0.3c0,0.1-0.1,0.2-0.1,0.3l0,0.1c-0.1,0.1-0.2,0.3-0.3,0.4l0,0.1
	c-0.1,0.2-0.3,0.3-0.5,0.4c-0.2,0.1-0.4,0.1-0.7,0.1h-0.1c-0.1,0-0.2,0.1-0.3,0.2l-0.1,0.1l-0.1,0.1l-0.1,0.2
	c-0.1,0.2-0.2,0.3-0.4,0.4c-0.2,0-0.4,0.1-0.6,0.1l-0.2,0c-0.1,0-0.3,0-0.4-0.1c-0.1,0-0.2,0-0.3,0.1c-0.1,0.1-0.2,0.2-0.4,0.3
	l-0.3,0.1c-0.2,0-0.4,0-0.6,0l-0.2,0c-0.1,0-0.2,0-0.3-0.1c-0.1,0-0.2-0.1-0.3-0.1l-0.1,0c-0.2,0-0.4,0-0.6,0l-0.3-0.1
	c-0.1,0-0.2-0.1-0.3-0.2c-0.1-0.1-0.2-0.2-0.3-0.2H9.9c-0.2,0-0.4-0.1-0.5-0.2L9,22.5l-0.1-0.1l-0.2-0.2l-0.1-0.1
	C8.4,22,8.2,21.9,8,21.9l-0.6-0.1c-0.1,0-0.1,0-0.2,0l-0.2,0c-0.1,0-0.2-0.1-0.3-0.2c-0.1-0.1-0.2-0.1-0.3-0.1
	c-0.2,0.1-0.4,0.1-0.5,0.1H5.8c-0.3,0-0.5,0-0.7-0.1c-0.2-0.1-0.4-0.2-0.6-0.4c-0.1-0.2-0.3-0.3-0.5-0.3l-0.3-0.1
	c-0.2,0-0.4-0.1-0.6-0.2c-0.2-0.1-0.3-0.3-0.4-0.4c-0.1-0.1-0.1-0.3-0.1-0.5v-0.1c0-0.2-0.2-0.4-0.3-0.4c-0.2-0.1-0.4-0.2-0.5-0.3
	c-0.1-0.1-0.2-0.3-0.2-0.5l0-0.4c0-0.2,0-0.3-0.2-0.4c-0.1-0.1-0.2-0.3-0.2-0.4l0-0.4c0-0.3-0.1-0.5-0.1-0.8c-0.1-0.2,0-0.5,0.2-0.6
	L1.3,15c0.1-0.1,0.1-0.2,0.1-0.3l-0.1-0.1c-0.1-0.1-0.2-0.2-0.3-0.2c-0.1,0-0.1-0.1-0.1-0.1L1,14.1C1,14.1,1,14,1,13.9
	c-0.1-0.1-0.1-0.2-0.1-0.3l0-0.7c0-0.1,0-0.3,0.1-0.4C0.9,12.4,0.9,12.2,0.8,12.2L0.8,12.2z M10.7,10.9c0.1-0.1,0.1-0.2,0-0.2
	c-0.1-0.1-0.2-0.2-0.2-0.3l-0.1-0.2c-0.1-0.1-0.2-0.2-0.3-0.3l0,0C10,9.8,9.9,9.7,9.8,9.5c-0.1-0.1-0.1-0.2,0-0.3l0.1-0.1
	C9.9,9,10,8.9,10,8.8v0c0-0.1,0-0.2-0.1-0.3c0-0.1-0.1-0.2-0.1-0.3V8.1c0-0.1,0-0.2,0.1-0.3C9.9,7.6,10,7.5,10,7.4v0
	c0-0.1,0-0.2,0-0.3s-0.1-0.2,0-0.3L10,6.5c0.1-0.2,0.1-0.3,0.3-0.5l0.1-0.2l0.1-0.1l0.1-0.1c0.1-0.1,0.1-0.2,0-0.2
	c-0.1-0.1-0.1-0.2-0.1-0.3l0-0.1c0-0.2,0.1-0.4,0.2-0.6l0,0C11,4.2,11.2,4.1,11.4,4l0.3-0.1c0.1,0,0.2-0.2,0.2-0.3
	c0-0.2,0.1-0.3,0.1-0.4l0.1,0c0.1-0.2,0.2-0.3,0.3-0.5l0.1-0.1c0,0,0-0.1,0-0.1c0-0.2-0.1-0.3-0.3-0.3l-0.4,0c-0.2,0-0.5,0-0.7,0
	l-0.9,0.1c-0.1,0-0.2,0.1-0.2,0.2c0,0.1-0.1,0.3-0.2,0.3L9.4,2.7l-0.1,0L8.9,2.9C8.7,2.9,8.6,3.1,8.4,3.3L8.4,3.4
	C8.3,3.7,8.1,3.8,7.9,4C7.7,4.1,7.6,4.3,7.6,4.6v0.1c0,0.2-0.1,0.4-0.2,0.5L7.3,5.3C7.2,5.4,7.2,5.5,7.3,5.6C7.3,5.7,7.3,5.9,7.3,6
	v0.5c0,0.1-0.1,0.3-0.2,0.3C7,6.9,6.9,7,6.9,7.1L6.8,7.3c0,0.2,0,0.4,0.2,0.5C7.2,8,7.3,8.1,7.3,8.4v0.2c0,0.2,0.1,0.4,0.3,0.5
	C7.8,9.2,8,9.4,8,9.6l0.1,0.2c0.1,0.2,0.3,0.4,0.5,0.4h0.1c0.2,0,0.3,0.1,0.4,0.3c0.1,0.2,0.3,0.3,0.4,0.3l0.3,0.1
	c0.2,0.1,0.3,0.1,0.5,0.3l0,0C10.4,11.1,10.5,11.1,10.7,10.9L10.7,10.9L10.7,10.9z M11.8,10C11.9,10,12,10,12,9.9l0-0.1
	c0.1-0.1,0.2-0.3,0.3-0.4l0.2-0.3c0,0,0,0,0.1,0l0.2-0.3c0.1-0.1,0.2-0.2,0.4-0.2c0.1,0,0.2-0.1,0.3-0.2c0-0.1,0.1-0.3,0.2-0.4
	L13.8,8c0.1-0.1,0.2-0.2,0.3-0.2c0.1,0,0.2,0,0.4,0h0.3c0.1,0,0.2-0.1,0.3-0.2c0.1-0.1,0.1-0.2,0.2-0.2l0.1,0
	c0.2-0.1,0.3-0.1,0.5-0.1l0.2,0c0.1,0,0.2,0,0.4,0.1c0.1,0.1,0.2,0.1,0.3,0l0.1,0C17,7.1,17.2,7,17.3,7h0c0.2,0,0.4,0,0.6,0H18
	c0.2,0,0.4,0.1,0.5,0.2l0,0c0.1,0.1,0.3,0.2,0.4,0.2h0.2c0,0,0.1,0,0.1-0.1c0,0,0.1-0.1,0.1-0.1h0.1c0.1,0,0.3,0,0.4,0.1l0.2,0.1
	c0.2,0.1,0.3,0.1,0.5,0.1h0.1c0.1,0,0.1-0.1,0.1-0.1c0-0.1,0-0.2-0.1-0.3L20.7,7c-0.1-0.1-0.1-0.3-0.2-0.4l0-0.1c0-0.1,0-0.2,0-0.3
	v0c0-0.1,0-0.2-0.1-0.2h-0.1c-0.2,0-0.3-0.1-0.4-0.3l-0.1-0.1c-0.1-0.1-0.2-0.2-0.2-0.4c0-0.1-0.2-0.2-0.3-0.2h-0.4
	c-0.1,0-0.3-0.1-0.4-0.2l0-0.1c-0.1-0.1-0.1-0.2-0.2-0.3c0-0.1-0.2-0.2-0.3-0.1l-0.1,0c-0.2,0.1-0.4,0.1-0.6,0.1l-0.2,0
	c-0.2,0-0.3-0.1-0.5-0.2l-0.1-0.1C16.5,4.1,16.4,4,16.3,4c-0.1,0-0.2,0-0.2,0l0,0.1c-0.1,0.1-0.2,0.2-0.4,0.2l-0.5,0
	c-0.1,0-0.2,0.1-0.3,0.1c-0.1,0.1-0.2,0.1-0.3,0.1h0c-0.1,0-0.2,0.1-0.3,0.1v0c-0.1,0.1-0.2,0.2-0.4,0.2l0,0c-0.1,0-0.2,0-0.4,0
	h-0.1c-0.2,0-0.3,0.2-0.3,0.3l0,0.2c0,0.2-0.1,0.3-0.2,0.4c-0.1,0.1-0.2,0.2-0.4,0.2h-0.2c-0.1,0-0.2,0.1-0.2,0.2c0,0.2,0,0.3,0,0.5
	L12,7c0,0.2-0.1,0.3-0.3,0.3l-0.1,0h0c-0.1,0-0.1,0.1-0.1,0.2c0.1,0.1,0.1,0.2,0.1,0.3l0,0.3c0,0.1-0.1,0.2-0.1,0.3
	c-0.1,0.1-0.1,0.2,0,0.3l0.1,0.2c0.1,0.1,0.1,0.2,0,0.3c0,0.1-0.1,0.2,0,0.3C11.6,9.8,11.7,9.9,11.8,10L11.8,10L11.8,10z M19.7,17.2
	c0.1,0.1,0.2,0.1,0.4,0.1l0.2-0.1c0.1-0.1,0.2-0.2,0.2-0.3v0l0.1-0.3l0.1-0.1l0-0.1l0-0.1c0-0.1,0.1-0.1,0.2-0.2l0,0
	c0.1,0,0.1-0.1,0.1-0.2c0-0.1,0-0.2,0.1-0.2l0.1-0.1l0.2-0.3v0c0.1-0.1,0.1-0.2,0.1-0.3s0-0.2,0-0.3l0,0c0-0.1-0.1-0.2-0.1-0.3
	l0-0.3l0-0.3c0-0.1,0-0.2,0.1-0.3c0.1-0.1,0.1-0.2,0.2-0.3v0l0,0c0-0.1,0-0.2-0.1-0.2c-0.1-0.1-0.2-0.1-0.2-0.2l0-0.1
	c0-0.2-0.1-0.4-0.1-0.5l0-0.5v0c0-0.2-0.1-0.3-0.3-0.3h0c-0.2,0-0.4-0.1-0.5-0.2L20.4,11l-0.2-0.2l-0.3-0.3
	c-0.1-0.1-0.2-0.3-0.3-0.4c-0.1-0.1-0.2-0.2-0.4-0.2l-0.2,0c-0.1,0-0.2-0.1-0.3-0.1c-0.1-0.1-0.2,0-0.3,0l-0.1,0.1l-0.1,0
	c-0.1,0-0.1,0-0.2-0.1c0-0.1,0-0.3,0-0.4V9.4c0-0.1-0.1-0.1-0.1-0.1h-0.2c-0.2,0-0.4,0-0.5-0.1l-0.1,0C17,9.1,16.9,9.1,16.8,9
	c-0.1,0-0.2,0-0.3,0.1l0,0c-0.1,0.1-0.3,0.1-0.4,0.1h-0.3c-0.1,0-0.3,0.1-0.4,0.1c-0.1,0.1-0.3,0.1-0.4,0.2l-0.3,0
	c-0.1,0-0.2,0.1-0.4,0.2C14.1,9.9,14,9.9,13.9,10l-0.1,0c-0.2,0.1-0.3,0.2-0.4,0.3l-0.1,0.1c-0.1,0.1-0.1,0.2,0,0.3
	c0.1,0.1,0.2,0.1,0.3,0.1l0.1-0.1c0.1,0,0.2,0,0.2,0c0.1,0.1,0.1,0.1,0.2,0.1l0.2,0c0.1,0,0.3,0,0.4,0c0.1,0.1,0.3,0.1,0.4,0.2
	s0.2,0.1,0.4,0.2c0.1,0,0.3,0.1,0.4,0.1l0.1,0c0.1,0,0.2,0.1,0.2,0.2c0,0.1,0.1,0.2,0.1,0.3v0c0,0.1,0.1,0.2,0.2,0.2h0.1
	c0.2,0,0.3,0,0.5,0.1l0.1,0c0.1,0,0.2,0.1,0.3,0.2c0.1,0.1,0.1,0.2,0.2,0.3l0,0.1c0,0.1,0,0.3,0,0.5v0.1c0,0.1,0.1,0.2,0.2,0.2
	c0.1,0,0.2,0.1,0.3,0.1l0,0c0.1,0.1,0.3,0.2,0.4,0.3l0,0.1c0.1,0.1,0.2,0.3,0.2,0.5v0.1c0,0.1,0,0.3-0.1,0.4c0,0.1,0,0.3,0.1,0.3
	l0.1,0.1c0.1,0.1,0.3,0.2,0.4,0.3c0.1,0.1,0.1,0.3,0.1,0.5v0.3c0,0.1,0,0.2-0.1,0.2S19.6,17,19.7,17.2L19.7,17.2L19.7,17.2z
	 M13.3,12.1L13.3,12.1c-0.1,0-0.1,0.1-0.1,0.1l0,0.2c0,0.2,0.1,0.3,0.1,0.5c0,0.2,0.1,0.3,0.2,0.4h0c0.1,0.1,0.2,0.3,0.2,0.5v0.5
	c0,0.1,0,0.2,0.1,0.3l0.1,0.1c0.1,0.1,0.1,0.3,0.1,0.4l0,0.6c0,0.1-0.1,0.2-0.2,0.3l-0.1,0c-0.1,0-0.1,0.1-0.1,0.1
	c0,0.1,0,0.2,0.1,0.2v0c0,0.1,0,0.2,0,0.3l0,0.3c0,0.2-0.1,0.4-0.2,0.6l-0.1,0.1c0,0.1-0.1,0.2-0.2,0.2c-0.1,0-0.2,0.1-0.2,0.2
	l-0.1,0.4c-0.1,0.2-0.1,0.4-0.3,0.6h0c-0.1,0.2-0.3,0.3-0.4,0.4l-0.1,0.1l-0.3,0.1c-0.1,0-0.2,0.1-0.2,0.2L11.7,20
	c0,0.2-0.1,0.4-0.2,0.5l-0.1,0.1l-0.1,0.1L11,21c-0.1,0.1-0.3,0.2-0.5,0.2l-0.4-0.1l-0.3,0H9.7c0,0-0.1,0.1,0,0.2
	c0.1,0.1,0.2,0.2,0.3,0.2l0.2,0c0.1,0,0.2,0,0.3,0.1c0.1,0.1,0.2,0.1,0.3,0.1h0c0.1,0,0.3,0.1,0.4,0l0.1,0c0.2,0,0.3,0,0.5,0.1
	l0.1,0c0.1,0,0.1,0,0.2,0c0.1-0.1,0.1-0.1,0.2-0.1l0.1,0c0.1,0,0.3-0.1,0.4-0.1H13c0.1,0,0.2,0,0.3,0.1l0,0c0.1,0,0.1,0,0.2-0.1
	c0-0.1,0.1-0.1,0.2-0.2l0.2-0.2l0.2-0.1l0.1,0c0.1-0.1,0.2-0.1,0.4-0.1l0.4,0c0.1,0,0.3-0.1,0.3-0.3c0-0.1,0.1-0.3,0.2-0.4
	s0.2-0.2,0.3-0.3c0.1-0.1,0.3-0.1,0.4-0.2h0.1c0.2,0,0.3-0.2,0.3-0.3v-0.7c0-0.1,0.1-0.2,0.1-0.3l0.2-0.3l0.1-0.1
	c0.1,0,0.1-0.1,0.2-0.2l0.1-0.1c0.1-0.1,0.1-0.2,0-0.3C17,17.3,17,17.2,16.9,17v0c0-0.2,0-0.3,0-0.5v0c0-0.1,0.1-0.3,0.2-0.4
	c0.1-0.1,0.1-0.2,0-0.3L17,15.6c-0.1-0.1-0.2-0.3-0.2-0.5l0-0.2c0-0.1,0-0.1,0-0.2l0-0.1c0-0.2-0.1-0.3-0.3-0.4l-0.1,0
	c-0.1-0.1-0.2-0.1-0.3-0.3c-0.1-0.1-0.1-0.2-0.1-0.4l0-0.2c0-0.1,0-0.1-0.1-0.1l-0.2-0.1L15.3,13c-0.1,0-0.2-0.1-0.3-0.2h0
	c0-0.1-0.1-0.1-0.2,0c0,0,0,0,0,0l-0.1,0.1c0,0,0,0-0.1,0c-0.1,0-0.1-0.1-0.1-0.1c0-0.2,0-0.3-0.2-0.4l-0.1-0.1l-0.3-0.2
	c-0.1,0-0.2,0-0.2,0.1l0,0.1c0,0,0,0,0,0c0,0-0.1,0-0.1-0.1l0-0.1C13.5,12.2,13.4,12.1,13.3,12.1L13.3,12.1z M12.1,13.1L12.1,13.1
	C12,13,12,13,11.9,13c-0.1,0.1-0.1,0.2-0.2,0.4v0c0,0.1-0.1,0.2-0.3,0.2h-0.1c-0.1,0-0.2,0.1-0.2,0.3c0,0.2-0.1,0.4-0.2,0.5
	l-0.1,0.1c-0.1,0.1-0.2,0.2-0.4,0.3l-0.1,0c-0.1,0-0.2,0.1-0.2,0.2c0,0.1-0.1,0.2-0.1,0.3l-0.1,0.1c-0.1,0.1-0.3,0.2-0.5,0.2L9,15.6
	c-0.2,0-0.3,0.1-0.4,0.2c-0.1,0.2-0.2,0.2-0.4,0.3l-0.2,0c-0.2,0-0.3,0-0.5,0l-0.1,0L7.1,16c-0.1,0-0.2,0-0.2,0.1l-0.1,0.1
	c-0.1,0.1-0.3,0.2-0.5,0.2l-0.7-0.1c-0.1,0-0.2,0-0.3-0.1c-0.1-0.1-0.2-0.1-0.2-0.2l-0.2-0.3c0,0-0.1,0-0.1,0l-0.1,0.1L4,15.9
	c-0.1,0-0.2,0-0.3-0.1c-0.1-0.1-0.2-0.1-0.3-0.1H3.2c-0.1,0-0.2,0.2-0.2,0.3l0,0.2c0,0.1,0,0.2,0,0.3s0,0.2,0,0.3L3.1,17
	c0.1,0.1,0.2,0.2,0.3,0.3s0.2,0.2,0.3,0.3l0.2,0.3c0.1,0.1,0.2,0.2,0.4,0.2c0.2,0,0.3,0,0.4,0.1L5,18.5c0.1,0.1,0.2,0.1,0.3,0l0.1,0
	c0.1,0,0.1,0,0.1,0.1v0c0,0.1,0.1,0.2,0.2,0.3l0.4,0.1c0.2,0,0.3,0.1,0.5,0.2h0.1c0.1,0,0.2-0.1,0.1-0.2v-0.4c0-0.1,0-0.2,0.1-0.2
	l0.1,0C7,18.5,7,18.6,7,18.6v0.2c0,0.1,0,0.2,0.1,0.3c0.1,0.1,0.2,0.1,0.3,0.1c0.1,0,0.2-0.1,0.4,0l0.4,0c0.2,0,0.4,0,0.5-0.1
	C8.9,19,9,19,9.2,18.8l0.1,0l0.3-0.3c0.1-0.1,0.2-0.1,0.4-0.1h0.4c0.2,0,0.4-0.2,0.4-0.4l0-0.2c0-0.1,0.1-0.2,0.1-0.4
	c0.1-0.1,0.2-0.2,0.3-0.2l0.1,0c0.2-0.1,0.3-0.2,0.4-0.4l0.1-0.2c0.1-0.2,0.1-0.4,0.3-0.5l0,0c0.1-0.1,0.1-0.3,0.1-0.4l0-0.1
	c-0.1-0.1-0.1-0.3,0-0.4c0.1-0.1,0.1-0.3,0.2-0.4l0.1-0.1c0-0.1,0-0.2,0-0.3c-0.1-0.1-0.1-0.2-0.1-0.3l0-0.1v-0.3c0-0.1,0-0.2,0-0.3
	L12.1,13.1L12.1,13.1z M10.7,12.3L10.7,12.3c0-0.1-0.1-0.2-0.1-0.2h-0.3c-0.1,0-0.2,0-0.3,0H9.5c-0.2,0-0.4,0-0.7-0.1L8.6,12
	l-0.2-0.1L8,11.8c-0.2-0.1-0.4-0.2-0.5-0.4l-0.1-0.1C7.3,11.1,7.2,11,7,11c-0.2,0-0.3,0-0.5-0.1l-0.1-0.1C6.2,10.8,6,10.6,6,10.3
	L6,10c0-0.1-0.1-0.3-0.2-0.3C5.6,9.6,5.5,9.6,5.3,9.5l-0.1,0C5.1,9.3,5,9.2,4.9,9l0-0.1c-0.1-0.2-0.1-0.3,0-0.5l0-0.1
	C5,8.2,5,8.1,5,8c0-0.1-0.1-0.2-0.1-0.3L4.7,7.5C4.5,7.4,4.4,7.2,4.4,7c0-0.2,0-0.4,0-0.6V6.3c0-0.1-0.1-0.2-0.2-0.2h0
	C4.1,6.1,4,6.1,3.9,6.3c0,0.1-0.1,0.2-0.2,0.4l0,0.1L3.4,6.9L3.3,7C3.2,7.1,3.2,7.2,3.2,7.4S3.1,7.7,3,7.8l0,0.1
	C3,8,2.9,8.1,2.8,8.2C2.7,8.2,2.6,8.4,2.6,8.5l0,0.5c0,0.2,0,0.4-0.1,0.6l0,0.1c0,0.1,0,0.3,0.1,0.3L3,10.1l0,0c0,0,0,0,0,0.1
	c0,0,0,0.1,0,0.1L3,10.4c-0.1,0-0.1,0.1-0.1,0.1l0,0.1v0l-0.1,0.6c0,0.1,0,0.2,0,0.3c0,0.1,0,0.1,0.1,0.2l0.2,0.1
	c0.1,0.1,0.2,0.1,0.3,0.2L3.5,12c0,0,0.1,0.1,0.1,0.1l0,0c0.1,0.1,0.1,0.1,0.1,0.2l0.1,0.4c0,0.1,0.1,0.2,0.2,0.2l0.2,0.1
	c0,0,0,0,0.1,0l0.2,0.1c0.2,0.1,0.3,0.1,0.4,0.3c0.1,0.1,0.2,0.2,0.3,0.4l0,0C5.3,14,5.5,14,5.6,14s0.2,0,0.4,0h0.2
	c0.1,0,0.2,0,0.3,0.1c0.1,0.1,0.2,0.1,0.3,0.1h0c0.1,0.1,0.2,0,0.3,0c0.1-0.1,0.2-0.1,0.4-0.1l0.5,0c0.1,0,0.2,0,0.2-0.1h0l0.2-0.2
	l0.1-0.1c0.1-0.1,0.2-0.1,0.3-0.1h0.4c0.1,0,0.2-0.1,0.3-0.2c0.1-0.1,0.1-0.2,0.3-0.2l0.2,0c0.1,0,0.1-0.1,0.2-0.2
	c0-0.1,0.1-0.2,0.1-0.2l0.2-0.2C10.6,12.5,10.7,12.4,10.7,12.3L10.7,12.3z"/>
</svg>
