<?xml version="1.0" encoding="utf-8"?>
<!-- Generator: Adobe Illustrator 22.1.0, SVG Export Plug-In . SVG Version: 6.00 Build 0)  -->
<svg version="1.1" id="Calque_1" xmlns="http://www.w3.org/2000/svg" xmlns:xlink="http://www.w3.org/1999/xlink" x="0px" y="0px"
	 viewBox="0 0 2000 2000" style="enable-background:new 0 0 2000 2000;" xml:space="preserve">
<style type="text/css">
	.st0{fill:#FDD02C;}
	.st1{opacity:0.3;fill:#FFFFFF;enable-background:new    ;}
	.st2{fill:#FFFFFF;}
	.st3{fill:url(#SVGID_1_);}
	.st4{fill:url(#SVGID_2_);}
	.st5{fill:url(#SVGID_3_);}
	.st6{opacity:5.000000e-02;}
	.st7{fill:#1D1D1B;}
	.st8{fill:url(#SVGID_4_);}
	.st9{opacity:5.000000e-02;fill:#1D1D1B;enable-background:new    ;}
</style>
<g>
	<polygon class="st0" points="1658.6,1725.7 1008.7,1900.7 358.8,1725.7 208.7,100.8 1808.7,100.8 	"/>
	<polygon class="st1" points="1008.7,232.4 1008.7,1761.2 1010.3,1761.5 1536.2,1619.8 1657.5,232.4 	"/>
	<g>
		<polygon class="st2" points="1008.1,638.6 543,832.3 558.5,1024.2 1008.1,831.8 1486.6,627.5 1506.4,431.3 		"/>
		
			<linearGradient id="SVGID_1_" gradientUnits="userSpaceOnUse" x1="775.5792" y1="1179.5916" x2="775.5792" y2="793.9833" gradientTransform="matrix(1 0 0 1 0 -155.39)">
			<stop  offset="0.39" style="stop-color:#DADADA;stop-opacity:0"/>
			<stop  offset="1" style="stop-color:#DADADA"/>
		</linearGradient>
		<polygon class="st3" points="543,832.3 558.5,1024.2 1008.1,831.8 1008.1,638.6 		"/>
		
			<linearGradient id="SVGID_2_" gradientUnits="userSpaceOnUse" x1="1257.2502" y1="987.1945" x2="1257.2502" y2="586.6613" gradientTransform="matrix(1 0 0 1 0 -155.39)">
			<stop  offset="0.39" style="stop-color:#DADADA;stop-opacity:0"/>
			<stop  offset="1" style="stop-color:#DADADA"/>
		</linearGradient>
		<polygon class="st4" points="1506.4,431.3 1008.1,638.6 1008.1,831.8 1486.6,627.5 		"/>
		
			<linearGradient id="SVGID_3_" gradientUnits="userSpaceOnUse" x1="543.8345" y1="1351.5005" x2="1469.7281" y2="1351.5005" gradientTransform="matrix(1 0 0 1 0 -155.39)">
			<stop  offset="0" style="stop-color:#EEEDED"/>
			<stop  offset="1" style="stop-color:#FFFFFF"/>
		</linearGradient>
		<polygon class="st5" points="543.8,832.3 559,1024.2 1249.4,1026.4 1233.9,1282.3 1006.8,1346 788.3,1291 775.3,1132.2 
			572.3,1132.2 598.9,1438.8 1009,1559.9 1416.8,1441 1469.7,832.3 		"/>
		<g class="st6">
			<polygon class="st7" points="1008.1,832.3 543,832.3 558.5,1024.2 1008.1,1025.6 			"/>
			<polygon class="st7" points="1008.1,1345.5 1006,1346 787.8,1291 774.5,1132.2 571.8,1132.2 598.1,1438.8 1008.1,1559.9 			"/>
		</g>
		
			<linearGradient id="SVGID_4_" gradientUnits="userSpaceOnUse" x1="501.2303" y1="684.7593" x2="1506.3623" y2="684.7593" gradientTransform="matrix(1 0 0 1 0 -155.39)">
			<stop  offset="0" style="stop-color:#EEEDED"/>
			<stop  offset="1" style="stop-color:#FFFFFF"/>
		</linearGradient>
		<polygon class="st8" points="501.2,431.3 1506.4,431.3 1486.6,627.5 525.4,627.5 		"/>
		<polygon class="st9" points="1008.1,431.3 501.2,431.3 525.4,627.5 1008.1,627.5 		"/>
	</g>
</g>
</svg>
