<svg enable-background="new 0 0 2000 2000" viewBox="0 0 2000 2000" xmlns="http://www.w3.org/2000/svg"><path d="m352.7 1718.4-144.1-1616.4h1582.8l-144.3 1616.5-647.5 179.5z" fill="#fcd02c"/><path d="m1000 234.1v1526.6l523.6-145.1 123.3-1381.5z" fill="#fff" opacity=".3"/><path d="m503.5 432.4 53.4 599.5h687.1l-23 257.1-221.3 59.9-220.8-59.8-14.7-165.1h-199l28.4 318.3 406.1 112.8 406.6-112.8 54.5-608.6h-722.6l-18.1-203.1h758.1.6l17.7-198.2z" fill="#fff"/><g fill="#ebebeb"><path d="m1000 432.4h-496.5l53.4 599.5h443.1v-198.2h-261.8l-18.1-203.1h279.9z"/><path d="m1000 1348.8-.3.1-220.8-59.8-14.7-165.1h-199l28.4 318.3 406.1 112.8.3-.1z"/></g></svg>