<?xml version="1.0" encoding="utf-8"?>
<!-- Generator: Adobe Illustrator 22.1.0, SVG Export Plug-In . SVG Version: 6.00 Build 0)  -->
<svg version="1.1" id="Capa_1" xmlns="http://www.w3.org/2000/svg" xmlns:xlink="http://www.w3.org/1999/xlink" x="0px" y="0px"
	 viewBox="0 0 552.8 552.8" style="enable-background:new 0 0 552.8 552.8;" xml:space="preserve">
<style type="text/css">
	.st0{fill:#FFB600;}
</style>
<g>
	<g>
		<path class="st0" d="M18,528.9h71.9c9.9,0,17.9-8,17.9-18V196.8c0-9.9-8-17.9-17.9-17.9H18c-9.9,0-18,8-18,17.9v314.1
			C0,520.8,8,528.9,18,528.9z"/>
		<path class="st0" d="M18,123.6h71.9c9.9,0,17.9-8,17.9-17.9V41.9c0-9.9-8-18-17.9-18H18c-9.9,0-18,8-18,18v63.8
			C0,115.6,8,123.6,18,123.6z"/>
		<path class="st0" d="M525.7,215.3c-10.1-13.3-25-24.2-44.7-32.8s-41.4-12.8-65.2-12.8c-48.3,0-89.2,18.4-122.7,55.3
			c-6.7,7.3-11.5,5.7-11.5-4.2v-23.9c0-9.9-8-17.9-18-17.9h-64.2c-9.9,0-17.9,8-17.9,17.9V511c0,9.9,8,18,17.9,18h71.9
			c9.9,0,18-8,18-18V401.7c0-45.5,2.7-76.7,8.2-93.6s15.7-30.4,30.5-40.6s31.6-15.3,50.2-15.3c14.6,0,27,3.6,37.4,10.7
			c10.4,7.2,17.8,17.2,22.4,30.1s6.9,41.4,6.9,85.3v132.6c0,9.9,8,18,17.9,18h71.9c9.9,0,17.9-8,17.9-18V333c0-31.4-2-55.6-5.9-72.5
			S535.8,228.6,525.7,215.3z"/>
	</g>
</g>
</svg>
