<?xml version="1.0" encoding="utf-8"?>
<!-- Generator: Adobe Illustrator 22.1.0, SVG Export Plug-In . SVG Version: 6.00 Build 0)  -->
<svg version="1.1" id="Calque_1" xmlns="http://www.w3.org/2000/svg" xmlns:xlink="http://www.w3.org/1999/xlink" x="0px" y="0px"
	 viewBox="0 0 2500 2246" style="enable-background:new 0 0 2500 2246;" xml:space="preserve">
<style type="text/css">
	.st0{fill:#FFB600;}
</style>
<g>
	<path class="st0" d="M2054.4,731.7L2054.4,731.7c-26.4-9.1-53-17.4-79.7-25.1c4.5-18.1,8.5-36.1,12.3-54.3
		c60.4-292.8,20.9-528.7-113.8-606.4c-129.1-74.5-340.4,3.1-553.6,188.8c-21,18.3-41.6,37.2-61.6,56.5
		c-13.5-12.9-27.1-25.5-41.1-37.9C993.5,54.9,769.5-28.8,635,49.1C506,123.8,467.7,345.5,522,623c5.4,27.5,11.6,54.9,18.3,82
		c-31.7,9-62.4,18.6-91.7,28.8C186.4,825.3,19.2,968.6,19.2,1117.1c0,153.5,179.6,307.3,452.7,400.6c22.1,7.5,44.4,14.5,67,21
		c-7.3,29.3-13.8,58.8-19.4,88.4c-51.8,272.7-11.3,489.1,117.3,563.4c132.9,76.6,356-2.1,573.1-191.9c17.2-15,34.4-31,51.6-47.6
		c21.8,21,44.1,41.3,66.9,61c210.3,181.1,418.1,254.1,546.7,179.7c132.8-76.8,175.9-309.4,119.9-592.4c-4.3-21.7-9.3-43.6-14.8-66.2
		c15.7-4.6,31.1-9.4,46-14.4c283.8-94,468.4-246,468.4-401.5C2494.5,968,2321.7,823.8,2054.4,731.7z M1389.1,314.5
		c182.7-159.1,353.6-221.8,431.3-176.9c82.9,47.8,115.1,240.6,63,493.4c-3.4,16.5-7.2,32.9-11.1,49.2
		c-102.6-23.7-214.2-41.3-330.9-52.3c-68-96.8-138.5-184.9-209.2-261.2C1350.6,348.9,1369.6,331.5,1389.1,314.5z M750.1,1244
		c22.4,43.2,45.8,85.9,70.2,128.1c24.9,43,50.8,85.4,77.7,127.1c-81.1-9.1-157.5-21.3-228.2-36.7
		C691.6,1391.8,718.5,1318.6,750.1,1244z M749.8,995.3c-30.7-73-57.1-144.8-78.6-214.2c70.7-15.8,146-28.7,224.4-38.5
		c-26.3,40.9-51.6,82.6-75.8,124.7C795.5,909.3,772.2,952.1,749.8,995.3z M806.1,1119.6c32.5-67.9,67.6-134.4,105.3-199.6l0,0
		c37.6-65.2,77.6-128.9,120-191c73.6-5.6,149.1-8.5,225.4-8.5c76.6,0,152.2,2.9,225.8,8.5c42,62,81.8,125.5,119.3,190.4
		c37.7,65.1,73.3,131.3,106.7,198.6c-33.1,68-68.5,134.8-106.4,200.4l0,0c-37.5,65.2-77.1,129-118.8,191.6
		c-73.5,5.3-149.3,8-226.7,8c-77.1,0-152-2.4-224.1-7.1c-42.7-62.4-83.1-126.4-120.9-191.9C874,1254,838.8,1187.4,806.1,1119.6z
		 M1693.9,1371.3c24.9-43.2,48.8-86.9,71.8-131.1l0,0c33.1,75.4,61,148.4,83.1,217.7c-71.8,16.4-149.3,29.6-230.9,39.4
		C1644,1455.8,1669.3,1413.8,1693.9,1371.3z M1764.6,995.3c-22.9-43.4-46.7-86.4-71.2-128.8l0,0c-24.2-41.8-49.2-83.1-75.3-123.7
		c79,10,154.7,23.2,225.7,39.5C1822.5,850.5,1795.9,922,1764.6,995.3z M1258,442.4c48.8,52.8,97.6,111.8,145.6,175.9
		c-97.5-4.6-195.1-4.6-292.6-0.1C1159.2,554.7,1208.4,495.8,1258,442.4z M687.8,140.8c82.8-47.9,266,20.4,458.9,191.8
		c12.3,11,24.7,22.4,37.1,34.3c-71.8,77.2-142.9,165.2-210.8,261c-116.4,10.8-227.8,28.2-330.3,51.4c-6.3-25.2-12-50.7-17.1-76.3
		l0,0C579.1,365.1,610,185.7,687.8,140.8z M567.1,1436.7c-20.5-5.8-40.9-12.2-61.1-19.2c-120.7-41.3-220.3-94.9-288.8-153.4
		c-61.4-52.6-92.4-104.8-92.4-147.2c0-90.1,134.4-205.1,358.5-283.3c28.2-9.8,56.5-18.7,85.1-26.8c31,100.7,71.6,206.1,120.6,312.7
		C639.6,1227.7,598.4,1334.7,567.1,1436.7z M1140.1,1918.6c-96,83.9-192.3,143.5-277.1,173.4l0,0c-76.2,26.9-136.9,27.7-173.5,6.5
		c-78.1-45-110.5-218.9-66.3-452.1c5.3-27.6,11.3-55,18.1-82.2c101.4,22.4,213.6,38.6,333.6,48.2c68.4,96.4,140.2,185,212.5,262.5
		C1172,1890.2,1156.2,1904.6,1140.1,1918.6z M1260.9,1799.2c-50.1-54.1-100.1-113.9-149-178.3c47.3,1.9,95.7,2.8,144.8,2.8
		c50.5,0,100.3-1.1,149.4-3.4C1358,1686,1309.3,1745.9,1260.9,1799.2z M1903.1,1946.4c-14.7,79.4-44.4,132.5-81,153.7
		c-78,45.2-244.9-13.6-424.7-168.4c-20.6-17.7-41.4-36.7-62.3-56.8c69.8-76.3,139.4-165,207.5-263.5
		c119.7-10.7,232.8-27.9,335.2-51.7c5,20.4,9.5,40.4,13.3,59.9l0,0C1915.9,1744.8,1919.5,1857.8,1903.1,1946.4z M1992.8,1418.2
		L1992.8,1418.2c-13.6,4.5-27.5,8.9-41.6,13c-31.3-99.2-73.6-204.6-125.3-313.6c49.4-106.4,90-210.5,120.5-309.1
		c25.4,7.3,49.9,15,73.6,23.2c229.1,78.9,368.7,195.4,368.7,285.3C2388.7,1212.8,2237.8,1337,1992.8,1418.2z"/>
</g>
<path class="st0" d="M1252.1,924.4c108.8,0,197,88.2,197,197s-88.2,197-197,197s-197-88.2-197-197S1143.3,924.4,1252.1,924.4"/>
</svg>
