<?xml version="1.0" encoding="utf-8"?>
<!-- Generator: Adobe Illustrator 22.1.0, SVG Export Plug-In . SVG Version: 6.00 Build 0)  -->
<svg version="1.1" id="Calque_1" xmlns="http://www.w3.org/2000/svg" xmlns:xlink="http://www.w3.org/1999/xlink" x="0px" y="0px"
	 viewBox="0 0 256 232" style="enable-background:new 0 0 256 232;" xml:space="preserve">
<style type="text/css">
	.st0{fill:#FDB300;}
	.st1{fill:#FCD02C;}
	.st2{opacity:0.2;fill:#FFFFFF;}
	.st3{opacity:0.5;fill:#FFFFFF;}
	.st4{opacity:0.35;fill:#FFFFFF;}
	.st5{opacity:0.65;fill:#FFFFFF;}
</style>
<g>
	<polygon class="st0" points="128,0 55.9,7.6 0,82.6 128,231.7 256,82.6 200.1,7.6 	"/>
	<polygon class="st1" points="0,82.6 128,231.7 51.8,82.6 	"/>
	<polygon class="st1" points="204.2,82.6 128,231.7 256,82.6 	"/>
	<polygon class="st2" points="51.8,82.6 128,231.7 204.2,82.6 	"/>
	<polygon class="st3" points="55.9,7.6 51.8,82.6 128,0 	"/>
	<polygon class="st3" points="204.2,82.6 200.1,7.6 128,0 	"/>
	<polygon class="st4" points="204.2,82.6 256,82.6 200.1,7.6 	"/>
	<polygon class="st4" points="0,82.6 51.8,82.6 55.9,7.6 	"/>
	<polygon class="st5" points="128,0 51.8,82.6 204.2,82.6 	"/>
</g>
</svg>
