<?xml version="1.0" encoding="utf-8"?>
<!-- Generator: Adobe Illustrator 22.1.0, SVG Export Plug-In . SVG Version: 6.00 Build 0)  -->
<svg version="1.1" id="Calque_1" xmlns="http://www.w3.org/2000/svg" xmlns:xlink="http://www.w3.org/1999/xlink" x="0px" y="0px"
	 viewBox="0 0 256 232" style="enable-background:new 0 0 256 232;" xml:space="preserve">
<style type="text/css">
	.st0{fill:#FDB300;}
	.st1{fill:#FFB600;}
	.st2{opacity:0.2;fill:#FFFFFF;enable-background:new    ;}
	.st3{opacity:0.5;fill:#FFFFFF;enable-background:new    ;}
	.st4{opacity:0.35;fill:#FFFFFF;enable-background:new    ;}
	.st5{opacity:0.65;fill:#FFFFFF;enable-background:new    ;}
</style>
<path class="st0" d="M128,0L55.9,7.6L0,82.6l128,149.1L256,82.6l-55.9-75L128,0z"/>
<path class="st1" d="M0,82.6l128,149.1L51.8,82.6L0,82.6z"/>
<path class="st1" d="M204.2,82.6L128,231.7L256,82.6L204.2,82.6z"/>
<g>
	<path class="st2" d="M51.8,82.6L128,231.7l76.2-149.1L51.8,82.6z"/>
	<path class="st3" d="M55.9,7.6l-4.1,75L128,0L55.9,7.6z"/>
	<path class="st3" d="M204.2,82.6l-4.1-75L128,0L204.2,82.6z"/>
	<path class="st4" d="M204.2,82.6H256l-55.9-75L204.2,82.6z"/>
	<path class="st4" d="M0,82.6h51.8l4.1-75L0,82.6z"/>
	<path class="st5" d="M128,0L51.8,82.6h152.4L128,0z"/>
</g>
</svg>
