<?xml version="1.0" encoding="utf-8"?>
<!-- Generator: Adobe Illustrator 22.1.0, SVG Export Plug-In . SVG Version: 6.00 Build 0)  -->
<svg version="1.1" id="ps_x5F_cc_x5F_app_x5F_RGB.svg"
	 xmlns="http://www.w3.org/2000/svg" xmlns:xlink="http://www.w3.org/1999/xlink" x="0px" y="0px" viewBox="0 0 2500 2438"
	 style="enable-background:new 0 0 2500 2438;" xml:space="preserve">
<style type="text/css">
	.st0{fill:#FFB600;}
</style>
<path class="st0" d="M0,0.2v2437.5h2500V0.2H0z M104.2,104.4h2291.7v2229.2H104.2V104.4z"/>
<path class="st0" d="M1825.5,1097.1c-15.6-7.3-35.4-10.4-60.4-10.4c-131.3,0-218.8,101-218.8,268.8c0,191.7,89.6,268.8,206.2,268.8
	c25,0,52.1-3.1,71.9-11.5v-515.6h1.1V1097.1z M1358.8,1363.8c0-242.7,156.2-432.3,412.5-432.3c21.9,0,33.3,0,54.2,2.1V662.7
	c0-6.2,5.2-10.4,10.4-10.4h167.7c8.3,0,10.4,3.1,10.4,8.3v952.1c0,28.1,0,63.5,5.2,102.1c0,7.3,0,8.3-6.3,11.5
	c-87.5,41.7-179.2,60.4-266.7,60.4C1520.3,1786.7,1358.8,1647.1,1358.8,1363.8L1358.8,1363.8z M1003.6,1195l291.7,565.6
	c5.2,8.3,2.1,16.7-6.2,16.7h-181.3c-11.5,0-16.7-3.1-21.9-13.5c-66.7-137.5-134.4-280.2-204.2-428.1h-2.1
	c-62.5,139.6-131.2,291.7-197.9,429.2c-5.2,8.3-10.4,11.5-18.8,11.5H490.1c-10.4,0-11.5-8.3-6.2-14.6l285.4-549L493.3,667
	c-6.2-8.3,0-15.6,7.3-15.6h179.2c10.4,0,15.6,2.1,18.8,11.5c65.6,138.5,132.3,275,194.8,414.6h2.1c60.4-137.5,127.1-276,190.6-412.5
	c5.2-8.3,8.3-13.5,18.8-13.5h167.7c8.3,0,11.5,6.2,6.2,15.6L1003.6,1195L1003.6,1195z"/>
</svg>
