<?xml version="1.0" encoding="utf-8"?>
<!-- Generator: Adobe Illustrator 22.1.0, SVG Export Plug-In . SVG Version: 6.00 Build 0)  -->
<svg version="1.1" id="Calque_1" xmlns="http://www.w3.org/2000/svg" xmlns:xlink="http://www.w3.org/1999/xlink" x="0px" y="0px"
	 viewBox="0 0 256 231" style="enable-background:new 0 0 256 231;" xml:space="preserve">
<style type="text/css">
	.st0{fill:none;}
	.st1{fill:#FCD02C;}
	.st2{fill:url(#SVGID_1_);}
</style>
<g>
	<polygon class="st0" points="101.3,152.6 154.7,152.6 167.6,77.2 87.1,77.2 	"/>
	<path class="st1" d="M8.3,0C5.9,0,3.6,1,2,2.8s-2.3,4.3-1.9,6.7l34.8,211.4c0.9,5.3,5.5,9.3,10.9,9.3h167c4.1,0.1,7.6-2.9,8.2-6.9
		L255.9,9.6c0.4-2.4-0.3-4.8-1.9-6.7c-1.6-1.8-3.9-2.9-6.3-2.8L8.3,0z M154.9,152.8h-53.3L87.2,77.3h80.7L154.9,152.8z"/>
	
		<linearGradient id="SVGID_1_" gradientUnits="userSpaceOnUse" x1="-368.1125" y1="613.3474" x2="-368.7296" y2="612.6978" gradientTransform="matrix(206 0 0 -152.7284 76093.6094 93773.9141)">
		<stop  offset="0.18" style="stop-color:#CC9900"/>
		<stop  offset="1" style="stop-color:#FCD02C"/>
	</linearGradient>
	<path class="st2" d="M244.6,77.2h-76.9l-12.9,75.4h-53.3l-62.9,74.7c2,1.7,4.5,2.7,7.2,2.7h166.9c4.1,0.1,7.5-2.9,8.2-6.9
		L244.6,77.2z"/>
</g>
</svg>
