<?xml version="1.0" encoding="utf-8"?>
<!-- Generator: Adobe Illustrator 22.1.0, SVG Export Plug-In . SVG Version: 6.00 Build 0)  -->
<svg version="1.1" id="Calque_1" xmlns="http://www.w3.org/2000/svg" xmlns:xlink="http://www.w3.org/1999/xlink" x="0px" y="0px"
	 viewBox="0 0 512 512" style="enable-background:new 0 0 512 512;" xml:space="preserve">
<style type="text/css">
	.st0{fill:#FFB600;}
</style>
<g>
	<path class="st0" d="M291.5,252.1c0-19.6-16-35.6-35.6-35.6c-19.6,0-35.6,16-35.6,35.6c0,19.6,16,35.6,35.6,35.6
		C275.5,287.7,291.5,271.8,291.5,252.1z"/>
	<path class="st0" d="M274.9,196.7l56.8-114.9l56.7,115.6c2.4-0.9,4.8-1.7,7.3-2.3L453,26H210.2l57.2,168.7
		C269.9,195.2,272.4,195.9,274.9,196.7z"/>
	<path class="st0" d="M409.3,287.7c19.6,0,35.6-16,35.6-35.6c0-19.6-16-35.6-35.6-35.6c-19.6,0-35.6,16-35.6,35.6
		C373.7,271.8,389.7,287.7,409.3,287.7z"/>
	<path class="st0" d="M101.9,216.9c-19.6,0-35.6,16-35.6,35.6c0,19.6,16,35.6,35.6,35.6c19.6,0,35.6-16,35.6-35.6
		C137.5,232.8,121.5,216.9,101.9,216.9z"/>
	<path class="st0" d="M80.6,470.8c46.6,32.3,95.9,7.7,153.1-20.7c28.6-14.2,58.1-28.9,88.6-36.4c11.5-2.8,23.3-4.5,34.8-6.2
		c21.3-3.1,41.4-6,58.2-15.7c18-10.4,30.3-27.9,33.8-47.8c2.6-15.1,0.2-30.3-6.4-43.8c-9.5,6.6-21,10.5-33.4,10.5
		c-32,0-58.1-25.8-58.6-57.7l-36.3-0.5c-0.2,32.2-26.4,58.3-58.6,58.3c-3,0-5.9-0.2-8.8-0.7c-9.5,15.1-21.2,29.2-34.7,41.9
		c-20.9,19.7-44.5,34.3-70,43.4l-4.7,1.7l-4.4-2.3c-32.3-16.6-47.8-51.8-38-84.1c-5.3-0.6-10.4-1.9-15.1-3.8
		c-1.6,3.3-3.2,6.7-4.9,10.1c-9.6,19.8-19.6,40.2-23.3,62.4C48.1,403.4,46.5,447.1,80.6,470.8z"/>
</g>
</svg>
