<?xml version="1.0" encoding="utf-8"?>
<!-- Generator: Adobe Illustrator 22.1.0, SVG Export Plug-In . SVG Version: 6.00 Build 0)  -->
<svg version="1.1" id="Capa_1" xmlns="http://www.w3.org/2000/svg" xmlns:xlink="http://www.w3.org/1999/xlink" x="0px" y="0px"
	 viewBox="0 0 403.2 403.2" style="enable-background:new 0 0 403.2 403.2;" xml:space="preserve">
<style type="text/css">
	.st0{fill:#FCD02C;}
</style>
<g>
	<g>
		<g>
			<path class="st0" d="M201.6,0c-85.5,0-155,69.5-155,155c0,51.2,24.9,96.6,63.3,124.9L190,397c2.6,3.8,7,6.1,11.6,6.1
				c4.7,0,9-2.3,11.6-6.1l80.1-117.2c38.4-28.2,63.3-73.7,63.3-124.9C356.6,69.5,287.1,0,201.6,0z M219.3,261.6
				c-5.7,0.7-11.6,1.1-17.7,1.1s-12-0.4-17.7-1.1c-51.2-8.5-90.3-53-90.3-106.6c0-59.6,48.5-108,108-108s108,48.5,108,108
				C309.6,208.5,270.5,253.1,219.3,261.6z"/>
			<circle class="st0" cx="201.6" cy="155" r="56.4"/>
		</g>
	</g>
</g>
</svg>
