<?xml version="1.0" encoding="utf-8"?>
<!-- Generator: Adobe Illustrator 22.1.0, SVG Export Plug-In . SVG Version: 6.00 Build 0)  -->
<svg version="1.1" id="Calque_1" xmlns="http://www.w3.org/2000/svg" xmlns:xlink="http://www.w3.org/1999/xlink" x="0px" y="0px"
	 viewBox="0 0 1000 1000" style="enable-background:new 0 0 1000 1000;" xml:space="preserve">
<style type="text/css">
	.st0{fill:#FCD02C;}
</style>
<title>Plan de travail 1</title>
<g id="Calque_1_1_">
	<g>
		<g>
			<path class="st0" d="M835.6,719.2c-29.9,0-57.8-5.8-83.7-17.3c-25.5-11.2-48.7-27.1-68.4-46.8c-4.3-4.3-8.3-8.8-12.2-13.5
				c-1.7,4.3-3.4,8.7-5.3,13c-7.3,16.6-15.6,32.7-25,48.2c24.8,23.8,53.7,42.9,85.3,56.4c34,14.7,70.5,22,109.2,22
				c25.7,0.2,51.2-3.4,75.8-10.6c23.4-6.9,46-16.6,67.2-28.7l-35.4-51.9C910.2,709.5,874.3,719.2,835.6,719.2z"/>
			<path class="st0" d="M911.4,228.9c-24.7-6.9-50.2-10.4-75.8-10.2c-38.8,0-75.2,7.5-109.2,22.4c-31.8,13.8-60.9,33.3-85.9,57.4
				c9.6,16,18.2,32.5,25.6,49.6c1.7,3.9,3.2,7.9,4.8,11.8c4-4.9,8.2-9.7,12.7-14.3c19.5-20.1,42.7-36.2,68.4-47.6
				c25.9-11.5,53.8-17.3,83.7-17.3c28.2,0,56,5.9,81.7,17.3v48h62.1v-88C958,245.5,935.2,235.7,911.4,228.9z"/>
		</g>
		<path class="st0" d="M20.6,500.8c-0.2-37.4,7.3-74.4,22-108.8c28.4-67.7,81.9-121.8,149.3-150.9c34.1-14.9,70.5-22.4,109.2-22.4
			c37.4-0.2,74.5,7.5,108.8,22.4c67.8,29,121.9,83.1,150.9,150.9c14.9,34.3,22.6,71.4,22.4,108.8c0,38.8-7.5,75.2-22.4,109.2
			c-29.1,67.4-83.2,120.9-150.9,149.3c-34.4,14.7-71.4,22.2-108.8,22c-38.8,0-75.2-7.3-109.2-22C124.7,730.8,71.1,677.3,42.6,610
			C28,576,20.6,539.6,20.6,500.8z M85.9,500.4c0,30.2,5.6,58.5,16.9,84.8c10.9,25.7,26.6,49.1,46.4,68.8
			c19.8,19.7,43.1,35.4,68.8,46.5c26.2,11.5,54.2,17.2,84.1,17.2c29.9,0,57.9-5.7,84.1-17.2c25.6-11.1,48.9-26.8,68.7-46.5
			c19.8-19.7,35.5-43.1,46.4-68.8c11.3-26.3,16.9-54.6,16.9-84.8c0-30.2-5.6-58.5-16.9-84.8c-22-52.1-63.2-93.7-115.1-116.1
			c-26.2-11.5-54.2-17.2-84.1-17.2c-29.9,0-57.9,5.7-84.1,17.2c-51.9,22.4-93.1,64-115.1,116.1C91.5,441.9,85.9,470.2,85.9,500.4z"
			/>
	</g>
</g>
</svg>
