<svg xmlns="http://www.w3.org/2000/svg" viewBox="0 0 611.04 158">
  <defs>
    <style>
      .cls-1 {
        fill: #ffb600;
      }
    </style>
  </defs>
  <title>Fichier 5</title>
  <g id="Calque_2" data-name="Calque 2">
    <g id="Calque_2-2" data-name="Calque 2">
      <g>
        <g>
          <path class="cls-1" d="M100.35,48.15A10.68,10.68,0,0,0,107.59,45l40-45h-5.3C123.47,12.42,103.25,19.66,79,19.66S34.53,12.42,15.69,0H10.21l40,45a10.68,10.68,0,0,0,7.52,3.13,37.48,37.48,0,0,1,42.61,0Z"/>
          <path class="cls-1" d="M57.74,109.84h-.15A10.65,10.65,0,0,0,50,113L10,158h5.67C34.53,145.58,54.75,138.34,79,138.34s44.47,7.24,63.31,19.66h5.48l-40-45a10.7,10.7,0,0,0-7.41-3.13,37.49,37.49,0,0,1-42.63,0Z"/>
          <path class="cls-1" d="M158,10,113,50a10.68,10.68,0,0,0-3.12,7.55h0a37.46,37.46,0,0,1,0,42.79,10.75,10.75,0,0,0,3.12,7.39l45,40v-5.48c-12.42-18.84-19.66-39.06-19.66-63.31S145.58,34.53,158,15.69Z"/>
          <path class="cls-1" d="M48.16,57.77A10.7,10.7,0,0,0,45,50.22l-45-40v4.92C12.65,34.08,20,54.51,20,79s-7.38,44.92-20,63.87v4.74l45-40a10.72,10.72,0,0,0,3.12-7.37,37.48,37.48,0,0,1,0-42.45Z"/>
        </g>
        <g>
          <path class="cls-1" d="M207.8,104.23a23.87,23.87,0,0,0,8.78-1.74,27.79,27.79,0,0,0,7.9-4.71,3.87,3.87,0,0,1,2.61-1.09,1.71,1.71,0,0,1,1.59.87l4.14,6a1.83,1.83,0,0,1,.43,1.23,2.34,2.34,0,0,1-.87,1.74,9.54,9.54,0,0,1-1.52,1.23q-11.31,8.13-23.06,8.12A36.81,36.81,0,0,1,193.38,113a37.52,37.52,0,0,1-19.91-19.9,37.31,37.31,0,0,1,19.94-48.83,36.6,36.6,0,0,1,14.39-2.87A35.24,35.24,0,0,1,219,43.26a42.93,42.93,0,0,1,11,5.72,9.57,9.57,0,0,1,1.81,1.56,2.1,2.1,0,0,1,.58,1.34,3.3,3.3,0,0,1-.14.91,3.22,3.22,0,0,1-.29.69l-4,6.23.07-.07a2.33,2.33,0,0,1-1.88.87,3.94,3.94,0,0,1-2.32-1.16q-8.34-6.23-16.1-6.23a24.47,24.47,0,0,0-9.78,2,26,26,0,0,0-8.2,5.55,26.77,26.77,0,0,0-5.54,8.26,25,25,0,0,0,0,19.58A26.12,26.12,0,0,0,198,102.24,24.47,24.47,0,0,0,207.8,104.23Z"/>
          <path class="cls-1" d="M299.44,81V45.58a2.55,2.55,0,0,1,.69-1.82A2.45,2.45,0,0,1,302,43h7.47a3,3,0,0,1,2,.69,2.26,2.26,0,0,1,.84,1.85v66c0,1.7-.95,2.54-2.83,2.54H302a2.24,2.24,0,0,1-2.54-2.54V93.79H262v17.83c0,1.7-1,2.54-2.9,2.54h-7.46a2.24,2.24,0,0,1-2.54-2.54v-66A2.46,2.46,0,0,1,251.67,43h7.61a2.84,2.84,0,0,1,2,.72,2.36,2.36,0,0,1,.79,1.82V81Z"/>
          <path class="cls-1" d="M377.09,111.84l-3-6.93H341.84L339,111.84a3.32,3.32,0,0,1-3.27,2.32h-7.83c-1.79,0-2.68-.63-2.68-1.88a5.81,5.81,0,0,1,.07-1.24l.15-.43,26.9-65.25.21-.44a3.6,3.6,0,0,1,.95-1.37,3.22,3.22,0,0,1,2.1-.51h4.86a3.25,3.25,0,0,1,2.1.51,3.7,3.7,0,0,1,.94,1.37.62.62,0,0,0,.22.44l26.89,65.25-.07-.14.15.79.14,1c0,1.25-.89,1.88-2.68,1.88H378ZM358,62.61,346.77,92.15H369.2Z"/>
          <path class="cls-1" d="M403.26,111.77v-66c0-1.79.82-2.68,2.47-2.68H436.4a22,22,0,0,1,8.3,1.59,21.06,21.06,0,0,1,6.85,4.43,21.33,21.33,0,0,1,4.6,6.52,18.15,18.15,0,0,1,1.63,7.54,16.64,16.64,0,0,1-1.45,6.78,22.13,22.13,0,0,1-3.77,5.91A26.86,26.86,0,0,1,458.51,84a21.9,21.9,0,0,1,2.17,9.46,19.21,19.21,0,0,1-1.7,8,20.59,20.59,0,0,1-4.82,6.67,22.78,22.78,0,0,1-7.51,4.5,27.14,27.14,0,0,1-9.46,1.59H405.73A2.15,2.15,0,0,1,403.26,111.77ZM416.1,71.39h20.3a7.84,7.84,0,0,0,3.33-.73,8.62,8.62,0,0,0,2.76-2A8.36,8.36,0,0,0,445,62.83a8.51,8.51,0,0,0-2.61-6.23,8.71,8.71,0,0,0-3.15-2,11.39,11.39,0,0,0-4-.69H416.1ZM448,92.92a11.17,11.17,0,0,0-.69-3.7,13.91,13.91,0,0,0-1.85-3.55q-2.76-3.77-6.31-3.77h-23v21h21.38a10.39,10.39,0,0,0,8-3.26,9.67,9.67,0,0,0,1.88-3.15A10.26,10.26,0,0,0,448,92.92Z"/>
          <path class="cls-1" d="M473.22,78.71A37.25,37.25,0,0,1,496,44.31a37.23,37.23,0,0,1,28.74,0,36.53,36.53,0,0,1,20,20A37.29,37.29,0,0,1,496,113a37.56,37.56,0,0,1-19.86-19.9A36.91,36.91,0,0,1,473.22,78.71Zm11.75,0a24.88,24.88,0,0,0,2,9.79,25.43,25.43,0,0,0,5.51,8.19,26,26,0,0,0,8.15,5.55,24.26,24.26,0,0,0,9.75,2,24.52,24.52,0,0,0,9.79-2,27,27,0,0,0,8.27-5.55,26.17,26.17,0,0,0,5.54-8.19,25,25,0,0,0,0-19.58,25.75,25.75,0,0,0-13.81-13.81,24.52,24.52,0,0,0-9.79-2,24.26,24.26,0,0,0-9.75,2,25.88,25.88,0,0,0-13.66,13.81A24.88,24.88,0,0,0,485,78.71Z"/>
          <path class="cls-1" d="M554.71,53.55V44.92A1.67,1.67,0,0,1,556.6,43h52.63c1.21,0,1.81.63,1.81,1.88v8.63a2.57,2.57,0,0,1-.47,1.45,1.49,1.49,0,0,1-1.34.73h-20v55.89c0,1.7-.89,2.54-2.68,2.54h-7.69c-1.64,0-2.46-.84-2.46-2.54V55.73H556.6C555.34,55.73,554.71,55,554.71,53.55Z"/>
        </g>
      </g>
    </g>
  </g>
</svg>
