<?xml version="1.0" encoding="utf-8"?>
<!-- Generator: Adobe Illustrator 22.1.0, SVG Export Plug-In . SVG Version: 6.00 Build 0)  -->
<svg version="1.1" id="Calque_1" xmlns="http://www.w3.org/2000/svg" xmlns:xlink="http://www.w3.org/1999/xlink" x="0px" y="0px"
	 viewBox="0 0 256 264" style="enable-background:new 0 0 256 264;" xml:space="preserve">
<style type="text/css">
	.st0{fill:#FED02D;}
	.st1{fill:#FFFFFF;stroke:#FED02D;stroke-miterlimit:10;}
	.st2{fill:#FFFFFF;stroke:#FED02D;stroke-width:1.918;stroke-linecap:round;stroke-linejoin:round;}
	.st3{fill:#FFFFFF;stroke:#FED02D;stroke-width:1.201;stroke-linecap:round;stroke-linejoin:round;}
</style>
<g>
	<path class="st0" d="M253.1,148.1C244.3,217.2,181,266,111.9,257.1C42.8,248.3-6,185,2.9,115.9C11.7,46.8,74.9-2,144.1,6.9
		C213.2,15.7,262,79,253.1,148.1"/>
	<g>
		<polygon class="st1" points="85.8,203.7 54.4,204.8 70.5,188.4 85.8,203.7 		"/>
		<path class="st1" d="M167.3,88c5.5,5.8,0.1,19.6,0.1,19.6s-5.3,19.4-35.9,44.7l-5.7-5.6l38.8-39.6l0.7-1
			C166.4,104.3,167.2,87.9,167.3,88"/>
		<path class="st2" d="M167.3,88c5.5,5.8,0.1,19.6,0.1,19.6s-5.3,19.4-35.9,44.7l-5.7-5.6l38.8-39.6l0.7-1
			C166.4,104.3,167.2,87.9,167.3,88L167.3,88z"/>
		<path class="st1" d="M117.4,138.4l49.8-50.5c2.5,3,3.1,6.2,2.3,10.8c-0.5,3.2-6,9.6-6,9.6l-37.8,38.3"/>
		<path class="st3" d="M117.4,138.4l49.8-50.5c2.5,3,3.1,6.2,2.3,10.8c-0.5,3.2-6,9.6-6,9.6l-37.8,38.3"/>
		<path class="st1" d="M167.3,88.1l-49.9,50.3l0.1-0.1l0,0l-12.4-12.2C130.9,94,147.6,88,147.6,88s10.9-4.2,18.6-1
			C166.8,87.4,167.1,87.6,167.3,88.1"/>
		<path class="st2" d="M167.3,88.1l-49.9,50.3l0.1-0.1l0,0l-12.4-12.2C130.9,94,147.6,88,147.6,88s10.9-4.2,18.6-1
			C166.8,87.4,167.1,87.6,167.3,88.1L167.3,88.1z"/>
		<path class="st1" d="M131.5,152.3c-11.9,9.8-27.1,25.2-47.9,36l4.6,19.7l-19.5-19.2l48.7-50.3"/>
		<path class="st2" d="M131.5,152.3c-11.9,9.8-27.1,25.2-47.9,36l4.6,19.7l-19.5-19.2l48.7-50.3"/>
		<polygon class="st1" points="105.5,126.3 117.5,138.3 89.6,144.4 105.2,126.1 105.5,126.3 		"/>
		<polygon class="st2" points="105.5,126.3 117.5,138.3 89.6,144.4 105.2,126.1 105.5,126.3 		"/>
		<path class="st1" d="M162.6,73.5c-1.2,10.7,6.5,20.3,17.2,21.5c10.7,1.2,20.3-6.5,21.5-17.2c1.2-10.7-6.5-20.4-17.2-21.5
			C173.4,55,163.7,62.7,162.6,73.5"/>
		<path class="st2" d="M162.6,73.5c-1.2,10.7,6.5,20.3,17.2,21.5c10.7,1.2,20.3-6.5,21.5-17.2c1.2-10.7-6.5-20.4-17.2-21.5
			C173.4,55,163.7,62.7,162.6,73.5L162.6,73.5z"/>
		<path class="st1" d="M198.5,86.4c3.6-5.3,3.4-13.1,2.7-15.5c-0.9-2.9-2.9-7.5-6.3-9.9l-18.3,16.8c0,0,14.1,15.1,14.4,15.2
			C191.2,93.1,195.2,91.2,198.5,86.4"/>
		<path class="st2" d="M198.5,86.4c3.6-5.3,3.4-13.1,2.7-15.5c-0.9-2.9-2.9-7.5-6.3-9.9l-18.3,16.8c0,0,14.1,15.1,14.4,15.2
			C191.2,93.1,195.2,91.2,198.5,86.4L198.5,86.4z M194.8,73.2c0,0,1.8,4.3-0.5,7.7L194.8,73.2z"/>
		<polyline class="st1" points="126.2,146.7 106,150.3 118.2,137.6 		"/>
		<path class="st2" d="M126.2,146.7l-20.2,3.6l12.2-12.7 M105.9,126.4l25.7,24.2"/>
	</g>
</g>
</svg>
