<?xml version="1.0" encoding="utf-8"?>
<!-- Generator: Adobe Illustrator 22.1.0, SVG Export Plug-In . SVG Version: 6.00 Build 0)  -->
<svg version="1.1" id="Calque_1" xmlns="http://www.w3.org/2000/svg" xmlns:xlink="http://www.w3.org/1999/xlink" x="0px" y="0px"
	 viewBox="0 0 512 512" style="enable-background:new 0 0 512 512;" xml:space="preserve">
<style type="text/css">
	.st0{fill:#FFB600;}
</style>
<g>
	<path class="st0" d="M256,104c-67.5,0-109.6,33.7-126.5,101.2c25.3-33.7,54.8-46.4,88.6-37.9c19.2,4.8,33,18.8,48.2,34.2
		c24.8,25.2,53.5,54.3,116.2,54.3c67.5,0,109.6-33.7,126.5-101.2c-25.3,33.7-54.8,46.4-88.6,38c-19.2-4.8-33-18.8-48.2-34.2
		C347.4,133.1,318.7,104,256,104z M129.5,255.8C62,255.8,19.9,289.5,3,357c25.3-33.7,54.8-46.4,88.5-38c19.2,4.8,33,18.8,48.2,34.2
		c24.8,25.2,53.5,54.3,116.2,54.3c67.5,0,109.6-33.7,126.5-101.2c-25.3,33.7-54.8,46.4-88.6,38c-19.2-4.8-33-18.8-48.2-34.2
		C220.9,284.9,192.2,255.8,129.5,255.8z"/>
</g>
</svg>
