<?xml version="1.0" encoding="utf-8"?>
<!-- Generator: Adobe Illustrator 22.1.0, SVG Export Plug-In . SVG Version: 6.00 Build 0)  -->
<svg version="1.1" id="Calque_1" xmlns="http://www.w3.org/2000/svg" xmlns:xlink="http://www.w3.org/1999/xlink" x="0px" y="0px"
	 viewBox="0 0 512 512" style="enable-background:new 0 0 512 512;" xml:space="preserve">
<style type="text/css">
	.st0{fill:#FCD02C;}
</style>
<g id="Email">
	<path class="st0" d="M492.8,193.7l0.1-0.1L440,153.5V80c0-4.4-3.6-8-8-8h-99.5l-62-47c-8.6-6.5-20.5-6.5-29,0l-62,47H80
		c-4.4,0-8,3.6-8,8v73.5l-52.8,40.1l0.1,0.1c-2,1.5-3.3,3.8-3.3,6.3v288c0,4.4,3.6,8,8,8h464c4.4,0,8-3.6,8-8V200
		C496,197.5,494.8,195.2,492.8,193.7z M440,173.6l35.1,26.6L440,229.3V173.6z M251.2,37.7c2.8-2.2,6.8-2.2,9.7,0L306,72H206
		L251.2,37.7z M88,88h336v154.6l-110,91l-42.6-35.3c-8.9-7.5-21.8-7.5-30.7,0L198,333.6l-110-91V88z M36.9,200.3L72,173.6v55.7
		L36.9,200.3z M32,217l153.4,127L32,471V217z M46.2,480l204.7-169.4c3-2.5,7.3-2.5,10.2,0L465.8,480H46.2z M480,471L326.6,344
		L480,217V471z"/>
	<path class="st0" d="M256,264h40c4.4,0,8-3.6,8-8s-3.6-8-8-8h-40c-30.9,0-56-25.1-56-56s25.1-56,56-56h16c22.1,0,40,17.9,40,40v32
		c0,4.4-3.6,8-8,8s-8-3.6-8-8v-32c0-13.3-10.7-24-24-24h-16c-22.1-0.1-40.1,17.8-40.1,39.9c-0.1,22.1,17.8,40.1,39.9,40.1
		c10.4,0,20.5-4,28-11.3c7,11.2,21.8,14.6,33,7.6c7-4.4,11.3-12.1,11.3-20.4v-32c0-30.9-25.1-56-56-56h-16c-39.8,0-72,32.2-72,72
		S216.2,264,256,264z M256,216c-13.3,0-24-10.7-24-24s10.7-24,24-24h16c4.4,0,8,3.6,8,8v16C280,205.3,269.3,216,256,216z"/>
</g>
</svg>
